#Comment line ignore any data following # character 
#Hierarchical Translation and Rotation (.htr) file 
[Header]	
#Header keywords are followed by a single value 
FileType HTR		#Single word string
DataType HTRS		#Translation followed by rotation and scale data
FileVersion 1		#integer
NumSegments 64		#integer
NumFrames 3		#integer
DataFrameRate 30		#integer, data frame rate in this file
EulerRotationOrder ZYX
CalibrationUnits mm
RotationUnits Degrees
GlobalAxisofGravity Y
BoneLengthAxis Y
ScaleFactor 1.00
[SegmentNames&Hierarchy]
#CHILD	PARENT
Pinger_Root GLOBAL
Pelvis Pinger_Root
L_Hip Pelvis
R_Hip Pelvis
Rear_Leg01 Pelvis
Spine1 Pelvis
L_Leg01 L_Hip
L_Leg02 L_Leg01
L_Leg03 L_Leg02
L_Foot L_Leg03
L_Toe1_01 L_Foot
L_Toe2_01 L_Foot
L_Toe3_01 L_Foot
planeAlignerLeft L_Foot
L_Toe1_02 L_Toe1_01
L_Toe1_03 L_Toe1_02
L_Toe2_02 L_Toe2_01
L_Toe2_03 L_Toe2_02
L_Toe3_02 L_Toe3_01
L_Toe3_03 L_Toe3_02
planeLockWeightLeft planeAlignerLeft
R_Leg01 R_Hip
R_Leg02 R_Leg01
R_Leg03 R_Leg02
R_Foot R_Leg03
planeAlignerRight R_Foot
R_Toe1_01 R_Foot
R_Toe2_01 R_Foot
R_Toe3_01 R_Foot
planeLockWeightRight planeAlignerRight
R_Toe1_02 R_Toe1_01
R_Toe1_03 R_Toe1_02
R_Toe2_02 R_Toe2_01
R_Toe2_03 R_Toe2_02
R_Toe3_02 R_Toe3_01
R_Toe3_03 R_Toe3_02
Rear_Leg02 Rear_Leg01
Rear_Leg03 Rear_Leg02
Rear_Leg04 Rear_Leg03
Rear_Foot Rear_Leg04
planeAlignerCenter Rear_Foot
Rear_Toe1_01 Rear_Foot
Rear_Toe2_01 Rear_Foot
Rear_Toe3_01 Rear_Foot
planeLockWeightCenter planeAlignerCenter
Rear_Toe1_02 Rear_Toe1_01
Rear_Toe1_03 Rear_Toe1_02
Rear_Toe2_02 Rear_Toe2_01
Rear_Toe2_03 Rear_Toe2_02
Rear_Toe3_02 Rear_Toe3_01
Rear_Toe3_03 Rear_Toe3_02
Back_Bone Spine1
Head Spine1
Motor_Bone Back_Bone
Ping_Mechanism Back_Bone
BN_LookIK Head
bottomMouth Head
L_Mouth01 Head
L_mouthFront Head
mouthGun Head
R_Mouth01 Head
R_mouthFront Head
TopMouth Head
weapon_bone Head
[BasePosition]
#SegmentName Tx, Ty, Tz, Rx, Ry, Rz, BoneLength
Pinger_Root 0.000000 0.000000 0.000000 -90.000000 0.000000 0.000000 10.000000 
Pelvis 0.000000 0.000000 0.000000 0.000000 0.000000 0.000000 10.000000 
L_Hip 0.000000 0.000000 0.000000 0.000000 0.000000 0.000000 10.000000 
R_Hip 0.000000 0.000000 0.000000 0.000000 0.000000 0.000000 10.000000 
Rear_Leg01 0.000000 0.000000 0.000000 0.000000 0.000000 0.000000 10.000000 
Spine1 0.000000 0.000000 0.000000 0.000000 0.000000 0.000000 10.000000 
L_Leg01 0.000000 0.000000 0.000000 0.000000 0.000000 0.000000 10.000000 
L_Leg02 0.000000 0.000000 0.000000 0.000000 0.000000 0.000000 10.000000 
L_Leg03 0.000000 0.000000 0.000000 0.000000 0.000000 0.000000 10.000000 
L_Foot 0.000000 0.000000 0.000000 0.000000 0.000000 0.000000 10.000000 
L_Toe1_01 0.000000 0.000000 0.000000 0.000000 0.000000 0.000000 10.000000 
L_Toe2_01 0.000000 0.000000 0.000000 0.000000 0.000000 0.000000 10.000000 
L_Toe3_01 0.000000 0.000000 0.000000 0.000000 0.000000 0.000000 10.000000 
planeAlignerLeft 0.000000 0.000000 0.000000 0.000000 0.000000 0.000000 10.000000 
L_Toe1_02 0.000000 0.000000 0.000000 0.000000 0.000000 0.000000 10.000000 
L_Toe1_03 0.000000 0.000000 0.000000 0.000000 0.000000 0.000000 10.000000 
L_Toe2_02 0.000000 0.000000 0.000000 0.000000 0.000000 0.000000 10.000000 
L_Toe2_03 0.000000 0.000000 0.000000 0.000000 0.000000 0.000000 10.000000 
L_Toe3_02 0.000000 0.000000 0.000000 0.000000 0.000000 0.000000 10.000000 
L_Toe3_03 0.000000 0.000000 0.000000 0.000000 0.000000 0.000000 10.000000 
planeLockWeightLeft 0.000000 0.000000 0.000000 0.000000 0.000000 0.000000 10.000000 
R_Leg01 0.000000 0.000000 0.000000 0.000000 0.000000 0.000000 10.000000 
R_Leg02 0.000000 0.000000 0.000000 0.000000 0.000000 0.000000 10.000000 
R_Leg03 0.000000 0.000000 0.000000 0.000000 0.000000 0.000000 10.000000 
R_Foot 0.000000 0.000000 0.000000 0.000000 0.000000 0.000000 10.000000 
planeAlignerRight 0.000000 0.000000 0.000000 0.000000 0.000000 0.000000 10.000000 
R_Toe1_01 0.000000 0.000000 0.000000 0.000000 0.000000 0.000000 10.000000 
R_Toe2_01 0.000000 0.000000 0.000000 0.000000 0.000000 0.000000 10.000000 
R_Toe3_01 0.000000 0.000000 0.000000 0.000000 0.000000 0.000000 10.000000 
planeLockWeightRight 0.000000 0.000000 0.000000 0.000000 0.000000 0.000000 10.000000 
R_Toe1_02 0.000000 0.000000 0.000000 0.000000 0.000000 0.000000 10.000000 
R_Toe1_03 0.000000 0.000000 0.000000 0.000000 0.000000 0.000000 10.000000 
R_Toe2_02 0.000000 0.000000 0.000000 0.000000 0.000000 0.000000 10.000000 
R_Toe2_03 0.000000 0.000000 0.000000 0.000000 0.000000 0.000000 10.000000 
R_Toe3_02 0.000000 0.000000 0.000000 0.000000 0.000000 0.000000 10.000000 
R_Toe3_03 0.000000 0.000000 0.000000 0.000000 0.000000 0.000000 10.000000 
Rear_Leg02 0.000000 0.000000 0.000000 0.000000 0.000000 0.000000 10.000000 
Rear_Leg03 0.000000 0.000000 0.000000 0.000000 0.000000 0.000000 10.000000 
Rear_Leg04 0.000000 0.000000 0.000000 0.000000 0.000000 0.000000 10.000000 
Rear_Foot 0.000000 0.000000 0.000000 0.000000 0.000000 0.000000 10.000000 
planeAlignerCenter 0.000000 0.000000 0.000000 0.000000 0.000000 0.000000 10.000000 
Rear_Toe1_01 0.000000 0.000000 0.000000 0.000000 0.000000 0.000000 10.000000 
Rear_Toe2_01 0.000000 0.000000 0.000000 0.000000 0.000000 0.000000 10.000000 
Rear_Toe3_01 0.000000 0.000000 0.000000 0.000000 0.000000 0.000000 10.000000 
planeLockWeightCenter 0.000000 0.000000 0.000000 0.000000 0.000000 0.000000 10.000000 
Rear_Toe1_02 0.000000 0.000000 0.000000 0.000000 0.000000 0.000000 10.000000 
Rear_Toe1_03 0.000000 0.000000 0.000000 0.000000 0.000000 0.000000 10.000000 
Rear_Toe2_02 0.000000 0.000000 0.000000 0.000000 0.000000 0.000000 10.000000 
Rear_Toe2_03 0.000000 0.000000 0.000000 0.000000 0.000000 0.000000 10.000000 
Rear_Toe3_02 0.000000 0.000000 0.000000 0.000000 0.000000 0.000000 10.000000 
Rear_Toe3_03 0.000000 0.000000 0.000000 0.000000 0.000000 0.000000 10.000000 
Back_Bone 0.000000 0.000000 0.000000 0.000000 0.000000 0.000000 10.000000 
Head 0.000000 0.000000 0.000000 0.000000 0.000000 0.000000 10.000000 
Motor_Bone 0.000000 0.000000 0.000000 0.000000 0.000000 0.000000 10.000000 
Ping_Mechanism 0.000000 0.000000 0.000000 0.000000 0.000000 0.000000 10.000000 
BN_LookIK 0.000000 0.000000 0.000000 0.000000 0.000000 0.000000 10.000000 
bottomMouth 0.000000 0.000000 0.000000 0.000000 0.000000 0.000000 10.000000 
L_Mouth01 0.000000 0.000000 0.000000 0.000000 0.000000 0.000000 10.000000 
L_mouthFront 0.000000 0.000000 0.000000 0.000000 0.000000 0.000000 10.000000 
mouthGun 0.000000 0.000000 0.000000 0.000000 0.000000 0.000000 10.000000 
R_Mouth01 0.000000 0.000000 0.000000 0.000000 0.000000 0.000000 10.000000 
R_mouthFront 0.000000 0.000000 0.000000 0.000000 0.000000 0.000000 10.000000 
TopMouth 0.000000 0.000000 0.000000 0.000000 0.000000 0.000000 10.000000 
weapon_bone 0.000000 0.000000 0.000000 0.000000 0.000000 0.000000 10.000000 
#Beginning of Data. Separated by tabs
#Fr	Tx	Ty	Tz	Rx	Ry	Rz	SF
[Pinger_Root]
60 0.000000 0.000000 0.000000 -0.000075 -0.000000 -0.000020 0.000000
61 0.000000 0.000000 0.000000 -0.000075 -0.000000 -0.000020 0.000000
62 0.000000 0.000000 0.000000 -0.000075 -0.000000 -0.000020 0.000000
[Pelvis]
60 90.289093 914.813843 4371.807129 -122.504509 -85.301811 114.898811 4467.408203
61 81.405510 915.388184 4401.567383 -114.118050 -85.658234 106.503929 4496.482910
62 74.827583 916.177795 4423.512207 -104.481796 -85.906624 96.859245 4518.012695
[L_Hip]
60 5.766392 125.831482 872.656799 160.158691 -45.484905 122.312202 881.701050
61 5.766392 125.831482 872.656799 160.158691 -45.484905 122.312202 881.701050
62 5.766392 125.831482 872.656799 160.158691 -45.484905 122.312202 881.701050
[R_Hip]
60 5.765438 125.836372 -872.654907 38.087841 49.812687 125.703735 881.699829
61 5.765438 125.836372 -872.654907 38.087841 49.812687 125.703735 881.699829
62 5.765438 125.836372 -872.654907 38.087841 49.812687 125.703735 881.699829
[Rear_Leg01]
60 -192.298416 -925.602966 -0.001907 168.927658 0.031151 -159.129913 945.367432
61 -192.298416 -925.602966 -0.001907 169.240372 0.840184 -159.364182 945.367432
62 -192.298416 -925.602966 -0.001907 169.549850 1.650425 -159.594070 945.367432
[Spine1]
60 290.604584 5.007505 0.000477 7.904751 1.058218 19.267193 290.647736
61 290.604584 5.007505 0.000477 7.641003 0.355474 19.264326 290.647736
62 290.604584 5.007505 0.000477 7.377304 -0.347244 19.264702 290.647736
[L_Leg01]
60 761.932007 -0.002384 -0.069261 26.267902 -9.797443 -16.780968 761.932068
61 761.932007 -0.002384 -0.069261 24.812941 -12.643985 -13.093235 761.932068
62 761.932007 -0.002384 -0.069261 23.443384 -14.812988 -10.272319 761.932068
[L_Leg02]
60 1441.140503 -0.000954 -0.000715 3.415906 0.159846 -121.685822 1441.140503
61 1441.140503 -0.000954 -0.000715 3.079944 -0.012332 -125.752953 1441.140503
62 1441.140503 -0.000954 -0.000715 2.745283 -0.138436 -128.110397 1441.140503
[L_Leg03]
60 1686.963989 -0.000715 -0.000954 -0.057727 0.029772 125.975761 1686.963989
61 1686.963989 -0.000715 -0.000954 -0.047308 0.023020 122.752556 1686.963989
62 1686.963989 -0.000715 -0.000954 -0.036527 0.016864 119.529350 1686.963989
[L_Foot]
60 3041.570068 -30.715107 11.297464 1.627881 13.137963 50.320721 3041.746094
61 3041.570068 -30.715107 11.297464 1.772678 13.060790 52.803898 3041.746094
62 3041.570068 -30.715107 11.297464 1.899353 13.071129 54.705048 3041.746094
[L_Toe1_01]
60 -188.216690 -224.732346 -21.137953 93.818520 -6.710464 -173.039764 293.899567
61 -188.216690 -224.732346 -21.137953 93.719086 -6.862499 -171.970474 293.899567
62 -188.216690 -224.732346 -21.137953 93.719086 -6.862507 -171.970444 293.899567
[L_Toe2_01]
60 200.746536 -219.926590 148.838394 -90.450081 -26.338058 -51.661381 332.896027
61 200.746536 -219.926590 148.838394 -90.024002 -26.311703 -52.677593 332.896027
62 200.746536 -219.926590 148.838394 -90.023987 -26.311703 -52.677628 332.896027
[L_Toe3_01]
60 188.832520 -219.859131 -191.078659 -99.719902 14.225200 -66.683594 347.140900
61 188.832520 -219.859131 -191.078659 -99.788063 13.839021 -67.673004 347.140900
62 188.832520 -219.859131 -191.078659 -99.788055 13.839008 -67.673027 347.140900
[planeAlignerLeft]
60 0.812531 -811.448792 -0.314951 0.000000 -90.000000 -90.001900 811.449280
61 0.812531 -811.448792 -0.314951 0.000000 -90.000000 -90.001900 811.449280
62 0.812531 -811.448792 -0.314951 0.000000 -90.000000 -90.001900 811.449280
[L_Toe1_02]
60 413.761139 0.000477 0.000000 0.001385 -25.896212 0.001385 413.761139
61 413.761139 0.000477 0.000000 0.001384 -25.935120 0.001384 413.761139
62 413.761139 0.000477 0.000000 0.001384 -25.974030 0.001384 413.761139
[L_Toe1_03]
60 464.317322 0.000358 -0.000089 0.003886 54.847458 0.003886 464.317322
61 464.317322 0.000358 -0.000089 0.003733 53.353619 0.003733 464.317322
62 464.317322 0.000358 -0.000089 0.003733 53.353565 0.003733 464.317322
[L_Toe2_02]
60 342.235809 -0.000477 0.000238 0.001187 -72.869934 0.001187 342.235809
61 342.235809 -0.000477 0.000238 0.001188 -72.402016 0.001188 342.235809
62 342.235809 -0.000477 0.000238 0.001188 -72.402016 0.001188 342.235809
[L_Toe2_03]
60 420.210846 -0.000715 0.000000 0.037601 86.422859 0.037601 420.210846
61 420.210846 -0.000715 0.000000 0.029090 85.375511 0.029090 420.210846
62 420.210846 -0.000715 0.000000 0.029090 85.375511 0.029090 420.210846
[L_Toe3_02]
60 329.270111 0.000954 0.000000 0.001177 -80.816391 0.001177 329.270111
61 329.270111 0.000954 0.000000 0.001178 -80.480354 0.001178 329.270111
62 329.270111 0.000954 0.000000 0.001178 -80.480331 0.001178 329.270111
[L_Toe3_03]
60 439.137451 -0.001907 0.000954 -179.996490 77.459877 -179.992981 439.137451
61 439.137451 -0.001907 0.000954 -179.995956 78.605682 -179.992447 439.137451
62 439.137451 -0.001907 0.000954 -179.995956 78.605698 -179.992447 439.137451
[planeLockWeightLeft]
60 -0.000954 0.000238 -0.000305 -0.011826 -0.004376 0.005620 0.001029
61 -0.000954 0.000238 -0.000305 -0.011826 -0.004376 0.005620 0.001029
62 -0.000954 0.000238 -0.000305 -0.011826 -0.004376 0.005620 0.001029
[R_Leg01]
60 761.455627 -0.001907 -0.000358 120.936302 -9.594263 36.911266 761.455688
61 761.455627 -0.001907 -0.000358 120.609070 -8.989064 36.388618 761.455688
62 761.455627 -0.001907 -0.000358 120.276802 -8.386877 35.863361 761.455688
[R_Leg02]
60 1441.140625 0.000000 -0.000238 -1.385641 -0.221418 -120.268257 1441.140625
61 1441.140625 0.000000 -0.000238 -1.362432 -0.209919 -119.554390 1441.140625
62 1441.140625 0.000000 -0.000238 -1.345488 -0.203259 -119.078941 1441.140625
[R_Leg03]
60 1686.963989 0.000954 0.001431 0.080140 -0.041798 131.760300 1686.963989
61 1686.963989 0.000954 0.001431 0.078679 -0.042391 131.642822 1686.963989
62 1686.963989 0.000954 0.001431 0.077219 -0.042987 131.525330 1686.963989
[R_Foot]
60 3041.560059 -30.531288 -11.204481 -0.885997 -24.678764 55.932278 3041.734131
61 3041.560059 -30.531288 -11.204481 -0.738255 -24.681311 55.673504 3041.734131
62 3041.560059 -30.531288 -11.204481 -0.590499 -24.683245 55.414719 3041.734131
[planeAlignerRight]
60 -0.635147 -812.270569 -0.364304 0.000000 -89.960434 -90.005180 812.270874
61 -0.635147 -812.270569 -0.364304 0.000000 -89.960434 -90.005180 812.270874
62 -0.635147 -812.270569 -0.364304 0.000000 -89.960434 -90.005180 812.270874
[R_Toe1_01]
60 -188.383347 -224.864899 21.052242 76.774620 -0.413258 -173.046417 294.101532
61 -188.383347 -224.864899 21.052242 76.768013 -0.391207 -172.798508 294.101532
62 -188.383347 -224.864899 21.052242 76.765778 -0.402901 -172.763596 294.101532
[R_Toe2_01]
60 200.637817 -220.002121 -148.787384 -91.667877 33.016697 -58.959465 332.857574
61 200.637817 -220.002121 -148.787384 -91.693115 32.969120 -59.033783 332.857574
62 200.637817 -220.002121 -148.787384 -91.718216 32.921486 -59.108002 332.857574
[R_Toe3_01]
60 188.606735 -220.092957 191.126343 -73.229271 -8.535848 -73.507950 347.192566
61 188.606735 -220.092957 191.126343 -73.228142 -8.509515 -73.590691 347.192566
62 188.606735 -220.092957 191.126343 -73.227051 -8.483188 -73.673424 347.192566
[planeLockWeightRight]
60 -0.000477 0.000000 0.000000 -0.011823 -0.004379 -0.000027 0.000477
61 -0.000477 0.000000 0.000000 -0.011823 -0.004379 -0.000027 0.000477
62 -0.000477 0.000000 0.000000 -0.011823 -0.004379 -0.000027 0.000477
[R_Toe1_02]
60 413.762085 0.000477 -0.000119 0.001395 -24.583553 0.001395 413.762085
61 413.762085 0.000477 -0.000119 0.001395 -24.608860 0.001395 413.762085
62 413.762085 0.000477 -0.000119 0.001394 -24.634169 0.001394 413.762085
[R_Toe1_03]
60 464.317810 0.000000 0.001088 0.006623 69.587341 0.006623 464.317810
61 464.317810 0.000000 0.001088 0.006624 69.589355 0.006624 464.317810
62 464.317810 0.000000 0.001088 0.006625 69.591347 0.006625 464.317810
[R_Toe2_02]
60 342.234741 -0.000954 0.000238 0.001196 -67.631943 0.001196 342.234741
61 342.234741 -0.000954 0.000238 0.001197 -67.357887 0.001197 342.234741
62 342.234741 -0.000954 0.000238 0.001197 -67.289566 0.001197 342.234741
[R_Toe2_03]
60 420.210846 0.000715 -0.000268 0.008617 74.343437 0.008617 420.210846
61 420.210846 0.000715 -0.000268 0.008369 73.877930 0.008369 420.210846
62 420.210846 0.000715 -0.000268 0.008301 73.745003 0.008301 420.210846
[R_Toe3_02]
60 329.270355 -0.000477 -0.000954 0.001184 -74.938133 0.001184 329.270355
61 329.270355 -0.000477 -0.000954 0.001184 -74.667847 0.001184 329.270355
62 329.270355 -0.000477 -0.000954 0.001184 -74.593246 0.001184 329.270355
[R_Toe3_03]
60 439.137939 0.000238 0.001431 -0.012989 84.136993 -0.009487 439.137939
61 439.137939 0.000238 0.001431 -0.012141 83.658195 -0.008639 439.137939
62 439.137939 0.000238 0.001431 -0.011857 83.479256 -0.008354 439.137939
[Rear_Leg02]
60 1162.777710 -0.029802 0.005960 0.752062 -2.886301 -126.128212 1162.777710
61 1162.777710 -0.029802 0.005960 0.693350 -2.900994 -124.947449 1162.777710
62 1162.777710 -0.029802 0.005960 0.650586 -2.912464 -124.051880 1162.777710
[Rear_Leg03]
60 607.192505 -0.013351 -0.073195 0.009230 -0.003951 65.383057 607.192505
61 607.192505 -0.013351 -0.073195 0.007853 -0.003034 64.989738 607.192505
62 607.192505 -0.013351 -0.073195 0.006470 -0.002126 64.596428 607.192505
[Rear_Leg04]
60 995.874512 -0.020504 -0.011921 -0.042031 -0.016557 60.335350 995.874573
61 995.874512 -0.020504 -0.011921 -0.040678 -0.014725 59.471542 995.874573
62 995.874512 -0.020504 -0.011921 -0.040594 -0.014955 58.823277 995.874573
[Rear_Foot]
60 3096.176270 -0.067472 -0.041425 -146.862946 85.431297 46.116955 3096.176270
61 3096.176270 -0.067472 -0.041425 -145.578796 85.570168 47.301659 3096.176270
62 3096.176270 -0.067472 -0.041425 -144.215500 85.706871 48.565575 3096.176270
[planeAlignerCenter]
60 0.350077 0.966311 -838.790894 0.000009 0.000003 -179.999985 838.791565
61 0.350077 0.966311 -838.790894 0.000009 0.000003 -179.999985 838.791565
62 0.350077 0.966311 -838.790894 0.000009 0.000003 -179.999985 838.791565
[Rear_Toe1_01]
60 0.653352 83.966492 -371.173737 0.288643 41.912884 90.411362 380.553192
61 0.653352 83.966492 -371.173737 0.288459 41.913292 90.411957 380.553192
62 0.653352 83.966492 -371.173737 0.288279 41.913715 90.412567 380.553192
[Rear_Toe2_01]
60 178.200760 -294.826019 -362.060547 -7.196267 34.406261 -66.271294 499.765686
61 178.200760 -294.826019 -362.060547 -7.196267 34.406261 -66.271294 499.765686
62 178.200760 -294.826019 -362.060547 -7.196267 34.406261 -66.271294 499.765686
[Rear_Toe3_01]
60 -153.359680 -308.780914 -362.060852 3.289418 33.518005 -112.540970 499.952881
61 -153.359680 -308.780914 -362.060852 3.289418 33.518005 -112.540970 499.952881
62 -153.359680 -308.780914 -362.060852 3.289418 33.518005 -112.540970 499.952881
[planeLockWeightCenter]
60 -0.000062 0.000238 0.000000 -0.011814 -0.004373 -0.000015 0.000246
61 -0.000062 0.000238 0.000000 -0.011814 -0.004373 -0.000015 0.000246
62 -0.000062 0.000238 0.000000 -0.011814 -0.004373 -0.000015 0.000246
[Rear_Toe1_02]
60 379.707825 0.194073 0.000477 -0.000242 -31.678459 0.006934 379.707855
61 379.707825 0.194073 0.000477 -0.000242 -31.677881 0.006934 379.707855
62 379.707825 0.194073 0.000477 -0.000242 -31.677319 0.006934 379.707855
[Rear_Toe1_03]
60 500.129700 0.165701 0.000119 -0.000103 51.906147 0.007295 500.129761
61 500.129700 0.165701 0.000119 -0.000103 51.904922 0.007295 500.129761
62 500.129700 0.165701 0.000119 -0.000103 51.903706 0.007295 500.129761
[Rear_Toe2_02]
60 340.494507 0.000238 -0.000954 0.001192 -69.854523 0.001192 340.494507
61 340.494507 0.000238 -0.000954 0.001192 -69.854523 0.001192 340.494507
62 340.494507 0.000238 -0.000954 0.001192 -69.854523 0.001192 340.494507
[Rear_Toe2_03]
60 433.103577 0.000000 0.000238 0.006696 69.810326 0.006696 433.103546
61 433.103577 0.000000 0.000238 0.006696 69.810326 0.006696 433.103546
62 433.103577 0.000000 0.000238 0.006696 69.810326 0.006696 433.103546
[Rear_Toe3_02]
60 340.494141 -0.000358 -0.000477 0.008288 -67.274704 -0.009460 340.494171
61 340.494141 -0.000358 -0.000477 0.008288 -67.274704 -0.009460 340.494171
62 340.494141 -0.000358 -0.000477 0.008288 -67.274704 -0.009460 340.494171
[Rear_Toe3_03]
60 433.103577 0.001431 -0.000238 -0.000972 65.958961 -0.004547 433.103546
61 433.103577 0.001431 -0.000238 -0.000972 65.958984 -0.004547 433.103546
62 433.103577 0.001431 -0.000238 -0.000972 65.958984 -0.004547 433.103546
[Back_Bone]
60 1312.175781 -701.934692 0.000954 1.889652 0.110696 -88.934425 1488.125488
61 1312.175781 -701.934692 0.000954 1.752812 0.071714 -87.826096 1488.125488
62 1312.175781 -701.934692 0.000954 1.615231 0.035381 -86.717499 1488.125488
[Head]
60 1406.159424 809.709290 0.001431 -0.086992 -1.475647 11.094362 1622.625488
61 1406.159424 809.709290 0.001431 -0.057791 -1.476204 9.985690 1622.625488
62 1406.159424 809.709290 0.001431 -0.028580 -1.476196 8.876827 1622.625488
[Motor_Bone]
60 1158.364380 -417.834747 0.000477 -0.096630 -0.445506 -105.914520 1231.419434
61 1158.364380 -417.834747 0.000477 -0.097547 -0.312627 -105.915077 1231.419434
62 1158.364380 -417.834747 0.000477 -0.096465 -0.118267 -105.915398 1231.419434
[Ping_Mechanism]
60 1235.229248 -441.510193 -9.265691 0.000103 -0.000053 82.120995 1311.795898
61 1234.665527 -441.493927 -5.520714 0.000103 -0.000053 82.120995 1311.238403
62 1234.101929 -441.477661 -1.775751 0.000103 -0.000053 82.120995 1310.691895
[BN_LookIK]
60 193.241119 1380.371704 -0.002861 0.000000 89.965736 -31.038179 1393.832153
61 193.241119 1380.371704 -0.002861 0.000000 89.965736 -31.038179 1393.832153
62 193.241119 1380.371704 -0.002861 0.000000 89.965736 -31.038179 1393.832153
[bottomMouth]
60 -435.092926 615.759399 -0.000954 -0.000022 0.000016 73.527184 753.966492
61 -435.092926 615.759399 -0.000954 -0.000022 0.000016 73.527184 753.966492
62 -435.092926 615.759399 -0.000954 -0.000022 0.000016 73.527184 753.966492
[L_Mouth01]
60 554.440979 7.658243 838.222046 150.204178 23.759130 109.605339 1005.027161
61 554.440979 7.658243 838.222046 150.204178 23.759130 109.605339 1005.027161
62 554.440979 7.658243 838.222046 150.204178 23.759130 109.605339 1005.027161
[L_mouthFront]
60 551.629089 934.514771 339.150421 0.000081 2.804060 79.119301 1136.941284
61 551.629089 934.514771 339.150421 0.000081 2.804060 79.119301 1136.941284
62 551.629089 934.514771 339.150421 0.000081 2.804060 79.119301 1136.941284
[mouthGun]
60 55.332661 1627.420898 0.000000 0.000023 0.000009 -11.038128 1628.361328
61 55.332661 1627.420898 0.000000 0.000023 0.000009 -11.038128 1628.361328
62 55.332661 1627.420898 0.000000 0.000023 0.000009 -11.038128 1628.361328
[R_Mouth01]
60 554.442383 7.659197 -838.223938 29.795891 -23.759109 109.605331 1005.029541
61 554.442383 7.659197 -838.223938 29.795891 -23.759109 109.605331 1005.029541
62 554.442383 7.659197 -838.223938 29.795891 -23.759109 109.605331 1005.029541
[R_mouthFront]
60 551.629089 934.514282 -339.151367 0.000029 -2.803930 79.119133 1136.941162
61 551.629089 934.514282 -339.151367 0.000029 -2.803930 79.119133 1136.941162
62 551.629089 934.514282 -339.151367 0.000029 -2.803930 79.119133 1136.941162
[TopMouth]
60 461.269867 -56.106091 -0.008583 -0.000059 -0.000268 92.025169 464.669525
61 461.269867 -56.106091 -0.008583 -0.000059 -0.000268 92.025169 464.669525
62 461.269867 -56.106091 -0.008583 -0.000059 -0.000268 92.025169 464.669525
[weapon_bone]
60 -987.239868 1448.372803 0.001431 0.000000 89.965736 -31.038221 1752.833740
61 -987.239868 1448.372803 0.001431 0.000000 89.965736 -31.038221 1752.833740
62 -987.239868 1448.372803 0.001431 0.000000 89.965736 -31.038221 1752.833740
